<mxfile host="app.diagrams.net" modified="2023-08-18T08:54:52.444Z" agent="Mozilla/5.0 (Windows NT 10.0; Win64; x64) AppleWebKit/537.36 (KHTML, like Gecko) Chrome/116.0.0.0 Safari/537.36" etag="OElM62cWPRh_H1YDNNUr" version="21.6.8" type="device">
  <diagram name="Страница — 1" id="uyfQwJdQi2JNmvNc1LIy">
    <mxGraphModel dx="2074" dy="1110" grid="1" gridSize="10" guides="1" tooltips="1" connect="1" arrows="1" fold="1" page="1" pageScale="1" pageWidth="827" pageHeight="1169" math="0" shadow="0">
      <root>
        <mxCell id="0" />
        <mxCell id="1" parent="0" />
        <mxCell id="yrHIsfx88Nec69ntE9cL-13" value="" style="rounded=1;whiteSpace=wrap;html=1;fillColor=#f5f5f5;fontColor=#333333;strokeColor=#666666;" vertex="1" parent="1">
          <mxGeometry x="30" y="290" width="690" height="300" as="geometry" />
        </mxCell>
        <mxCell id="yrHIsfx88Nec69ntE9cL-3" style="edgeStyle=orthogonalEdgeStyle;rounded=0;orthogonalLoop=1;jettySize=auto;html=1;exitX=1;exitY=0.5;exitDx=0;exitDy=0;entryX=0;entryY=0.5;entryDx=0;entryDy=0;fontSize=18;" edge="1" parent="1" source="yrHIsfx88Nec69ntE9cL-1" target="yrHIsfx88Nec69ntE9cL-2">
          <mxGeometry relative="1" as="geometry" />
        </mxCell>
        <mxCell id="yrHIsfx88Nec69ntE9cL-1" value="Task 1" style="rounded=1;whiteSpace=wrap;html=1;fontSize=18;fillColor=#d5e8d4;strokeColor=#82b366;" vertex="1" parent="1">
          <mxGeometry x="90" y="380" width="104" height="60" as="geometry" />
        </mxCell>
        <mxCell id="yrHIsfx88Nec69ntE9cL-7" style="edgeStyle=orthogonalEdgeStyle;rounded=0;orthogonalLoop=1;jettySize=auto;html=1;exitX=1;exitY=0.25;exitDx=0;exitDy=0;entryX=0;entryY=0.5;entryDx=0;entryDy=0;fontSize=18;" edge="1" parent="1" source="yrHIsfx88Nec69ntE9cL-2" target="yrHIsfx88Nec69ntE9cL-4">
          <mxGeometry relative="1" as="geometry" />
        </mxCell>
        <mxCell id="yrHIsfx88Nec69ntE9cL-8" style="edgeStyle=orthogonalEdgeStyle;rounded=0;orthogonalLoop=1;jettySize=auto;html=1;exitX=1;exitY=0.75;exitDx=0;exitDy=0;entryX=0;entryY=0.5;entryDx=0;entryDy=0;fontSize=18;" edge="1" parent="1" source="yrHIsfx88Nec69ntE9cL-2" target="yrHIsfx88Nec69ntE9cL-5">
          <mxGeometry relative="1" as="geometry" />
        </mxCell>
        <mxCell id="yrHIsfx88Nec69ntE9cL-2" value="Task 2" style="rounded=1;whiteSpace=wrap;html=1;fontSize=18;fillColor=#d5e8d4;strokeColor=#82b366;" vertex="1" parent="1">
          <mxGeometry x="230" y="380" width="104" height="60" as="geometry" />
        </mxCell>
        <mxCell id="yrHIsfx88Nec69ntE9cL-9" style="edgeStyle=orthogonalEdgeStyle;rounded=0;orthogonalLoop=1;jettySize=auto;html=1;exitX=1;exitY=0.5;exitDx=0;exitDy=0;entryX=0;entryY=0.25;entryDx=0;entryDy=0;fontSize=18;" edge="1" parent="1" source="yrHIsfx88Nec69ntE9cL-4" target="yrHIsfx88Nec69ntE9cL-6">
          <mxGeometry relative="1" as="geometry" />
        </mxCell>
        <mxCell id="yrHIsfx88Nec69ntE9cL-4" value="Task 3.1" style="rounded=1;whiteSpace=wrap;html=1;fontSize=18;fillColor=#d5e8d4;strokeColor=#82b366;" vertex="1" parent="1">
          <mxGeometry x="390" y="330" width="104" height="60" as="geometry" />
        </mxCell>
        <mxCell id="yrHIsfx88Nec69ntE9cL-10" style="edgeStyle=orthogonalEdgeStyle;rounded=0;orthogonalLoop=1;jettySize=auto;html=1;exitX=1;exitY=0.5;exitDx=0;exitDy=0;entryX=0;entryY=0.75;entryDx=0;entryDy=0;fontSize=18;" edge="1" parent="1" source="yrHIsfx88Nec69ntE9cL-5" target="yrHIsfx88Nec69ntE9cL-6">
          <mxGeometry relative="1" as="geometry" />
        </mxCell>
        <mxCell id="yrHIsfx88Nec69ntE9cL-5" value="Task 3.2" style="rounded=1;whiteSpace=wrap;html=1;fontSize=18;fillColor=#d5e8d4;strokeColor=#82b366;" vertex="1" parent="1">
          <mxGeometry x="390" y="430" width="104" height="60" as="geometry" />
        </mxCell>
        <mxCell id="yrHIsfx88Nec69ntE9cL-6" value="Task 4" style="rounded=1;whiteSpace=wrap;html=1;fontSize=18;fillColor=#d5e8d4;strokeColor=#82b366;" vertex="1" parent="1">
          <mxGeometry x="550" y="380" width="104" height="60" as="geometry" />
        </mxCell>
        <mxCell id="yrHIsfx88Nec69ntE9cL-11" value="" style="endArrow=none;dashed=1;html=1;dashPattern=1 3;strokeWidth=2;rounded=0;exitX=0.5;exitY=1;exitDx=0;exitDy=0;" edge="1" parent="1" source="yrHIsfx88Nec69ntE9cL-2" target="yrHIsfx88Nec69ntE9cL-12">
          <mxGeometry width="50" height="50" relative="1" as="geometry">
            <mxPoint x="390" y="590" as="sourcePoint" />
            <mxPoint x="440" y="540" as="targetPoint" />
          </mxGeometry>
        </mxCell>
        <mxCell id="yrHIsfx88Nec69ntE9cL-12" value="Action of Task 2" style="rounded=1;whiteSpace=wrap;html=1;fillColor=#dae8fc;strokeColor=#6c8ebf;" vertex="1" parent="1">
          <mxGeometry x="222" y="500" width="120" height="60" as="geometry" />
        </mxCell>
        <mxCell id="yrHIsfx88Nec69ntE9cL-14" value="&lt;font style=&quot;font-size: 18px;&quot;&gt;Workflow&lt;/font&gt;" style="text;html=1;strokeColor=none;fillColor=none;align=center;verticalAlign=middle;whiteSpace=wrap;rounded=0;" vertex="1" parent="1">
          <mxGeometry x="24" y="300" width="170" height="30" as="geometry" />
        </mxCell>
      </root>
    </mxGraphModel>
  </diagram>
</mxfile>
